# xmcd
#
# Track frame offsets:
#	150
#	12400
#	22790
#	34152
#	46600
#	58264
#	76272
#	91085
#	105357
#	117490
#	130587
#	143830
#	157170
#
# Disc length: 2236
#
# Revision: 2
# Processed by: cddbd v1.5.1PL0 Copyright (c) Steve Scherf et al.
# Submitted via: EasyCDDAExtractor 4.5.0.2
# Normalized: r0:TDELIM( - ),TSWAP
#
DISCID=9908ba0d
DTITLE=Various Artist - The Country Collection - Disc 5
DYEAR=1997
DGENRE=Country
TTITLE0=Sandy Posey - Young Love
TTITLE1=Ferlin Husky - Gone
TTITLE2=Porter Wagoner - Misery Loves Company
TTITLE3=Tommy Cash - Six White Horses
TTITLE4=Leon Ashley - Laura (What's He Got That I Ain't Got)
TTITLE5=Johnny Bush - You Gave Me A Mountain
TTITLE6=Don Gibson - Woman (Sensuous Woman)
TTITLE7=Bob Luman - Lonely Women Make Good Lovers
TTITLE8=Donna Fargo - Funny Face
TTITLE9=Faron Young - It's Four In The Morning
TTITLE10=Lynn Anderson - Rose Garden
TTITLE11=Margo Smith - Don't Break The Heart That Loves You
TTITLE12=Kitty Wells - Unloved Unwanted
EXTD=
EXTT0=
EXTT1=
EXTT2=
EXTT3=
EXTT4=
EXTT5=
EXTT6=
EXTT7=
EXTT8=
EXTT9=
EXTT10=
EXTT11=
EXTT12=
PLAYORDER=
